# xmcd CD database file
# Copyright (C) 1993-1998 Ti Kan
# 
# Track frame offsets:
#	150
#	14322
#	25532
#	40680
#	53862
#	65367
#	76087
#	87422
#	100455
#	113870
#	125180
#	138187
#	148360
#	162445
#
# Disc length: 2403 seconds
# 
# Revision: 1
# Processed by: cddbd v1.4b41PL1 Copyright (c) Steve Scherf et al.
# Submitted via: DiscPlay 4.0.4
# 
DISCID=bc09610e
DTITLE=V rios - 30 anos de jovem guarda - 1
DYEAR=1900
DGENRE=
TTITLE0=Festa de arromba - Erasmo Carlos
TTITLE1=Esque a - Golden Boys
TTITLE2=N o quero ver voc  triste - Ronnie Von
TTITLE3=Marciana (Marcianita) - Bobby de Carlo
TTITLE4=Pobre Menina - Lilian and Ed Wilson
TTITLE5=Rua Augusta - Eduardo Ara jo
TTITLE6=Emo  o - Os Vips
TTITLE7=Menina Linda - Renato e seus blue caps
TTITLE8=Filme triste - Trio Esperan a
TTITLE9=O caderninho - Erasmo Carlos
TTITLE10=querida - Jerry Adriani
TTITLE11=Pare o casamento - Wanderl a
TTITLE12=Mar de rosas - The fevers
TTITLE13=ltima can  o - Martinha
EXTD=
EXTT0=
EXTT1=
EXTT2=
EXTT3=
EXTT4=
EXTT5=
EXTT6=
EXTT7=
EXTT8=
EXTT9=
EXTT10=
EXTT11=
EXTT12=
EXTT13=
PLAYORDER=
